<mxfile host="app.diagrams.net" modified="2021-02-27T11:17:10.955Z" agent="5.0 (Windows NT 10.0; Win64; x64) AppleWebKit/537.36 (KHTML, like Gecko) Chrome/88.0.4324.182 Safari/537.36" etag="v4S5oaH9RD7v_bZzo4xr" version="14.4.2" type="github">
  <diagram name="Page-1" id="0">
    <mxGraphModel dx="1969" dy="1107" grid="0" gridSize="10" guides="1" tooltips="1" connect="1" arrows="1" fold="1" page="1" pageScale="1" pageWidth="826" pageHeight="1169" background="#ffffff" math="0" shadow="1">
      <root>
        <mxCell id="0" />
        <mxCell id="1" parent="0" />
        <mxCell id="2" value="" style="rounded=0;html=1;jettySize=auto;orthogonalLoop=1;fontSize=11;endArrow=block;endFill=0;endSize=8;strokeWidth=1;shadow=0;labelBackgroundColor=none;" parent="1" source="3" target="6" edge="1">
          <mxGeometry x="340" y="120" as="geometry" />
        </mxCell>
        <object label="Lamp doesn&#39;t work" Condition="Lamp does not produce light." id="3">
          <mxCell style="rounded=1;whiteSpace=wrap;html=1;fontSize=12;plain-red;glass=1;strokeWidth=1;shadow=0;" parent="1" vertex="1">
            <mxGeometry x="280" y="80" width="120" height="40" as="geometry" />
          </mxCell>
        </object>
        <mxCell id="4" value="Yes" style="rounded=0;html=1;jettySize=auto;orthogonalLoop=1;fontSize=11;endArrow=block;endFill=0;endSize=8;strokeWidth=1;shadow=0;labelBackgroundColor=none;" parent="1" source="6" target="10" edge="1">
          <mxGeometry x="340" y="250" as="geometry">
            <mxPoint as="offset" />
          </mxGeometry>
        </mxCell>
        <mxCell id="5" value="No" style="edgeStyle=orthogonalEdgeStyle;rounded=0;html=1;jettySize=auto;orthogonalLoop=1;fontSize=11;endArrow=block;endFill=0;endSize=8;strokeWidth=1;shadow=0;labelBackgroundColor=none;" parent="1" source="6" target="7" edge="1">
          <mxGeometry x="390" y="210" as="geometry">
            <mxPoint as="offset" />
          </mxGeometry>
        </mxCell>
        <object label="Lamp&lt;br&gt;plugged in?" Condition="Lamp connected to power outlet?" id="6">
          <mxCell style="rhombus;whiteSpace=wrap;html=1;shadow=0;fontFamily=Helvetica;fontSize=12;fontColor=#000000;align=center;strokeColor=#D6B656;strokeWidth=1;fillColor=#FFF2CC;gradientColor=#FFD966;spacing=6;spacingTop=-4;" parent="1" vertex="1">
            <mxGeometry x="290" y="170" width="100" height="80" as="geometry" />
          </mxCell>
        </object>
        <object label="Plug in lamp" Action="Connect lamp to power outlet." id="7">
          <mxCell style="rounded=1;whiteSpace=wrap;html=1;fontSize=12;plain-green;glass=1;strokeWidth=1;shadow=0;" parent="1" vertex="1">
            <mxGeometry x="440" y="190" width="120" height="40" as="geometry" />
          </mxCell>
        </object>
        <mxCell id="8" value="No" style="rounded=0;html=1;jettySize=auto;orthogonalLoop=1;fontSize=11;endArrow=block;endFill=0;endSize=8;strokeWidth=1;shadow=0;labelBackgroundColor=none;" parent="1" source="10" target="11" edge="1">
          <mxGeometry x="340" y="370" as="geometry">
            <mxPoint as="offset" />
          </mxGeometry>
        </mxCell>
        <mxCell id="9" value="Yes" style="edgeStyle=orthogonalEdgeStyle;rounded=0;html=1;jettySize=auto;orthogonalLoop=1;fontSize=11;endArrow=block;endFill=0;endSize=8;strokeWidth=1;shadow=0;labelBackgroundColor=none;" parent="1" source="10" target="12" edge="1">
          <mxGeometry x="390" y="330" as="geometry">
            <mxPoint as="offset" />
          </mxGeometry>
        </mxCell>
        <object label="Bulb&lt;br&gt;burned out?" Condition="Check if bulb is broken." id="10">
          <mxCell style="rhombus;whiteSpace=wrap;html=1;shadow=0;fontFamily=Helvetica;fontSize=12;fontColor=#000000;align=center;strokeColor=#D6B656;strokeWidth=1;fillColor=#FFF2CC;gradientColor=#FFD966;spacing=6;spacingTop=-4;" parent="1" vertex="1">
            <mxGeometry x="290" y="290" width="100" height="80" as="geometry" />
          </mxCell>
        </object>
        <object label="Repair Lamp" Action="Repair other parts of lamp." id="11">
          <mxCell style="rounded=1;whiteSpace=wrap;html=1;fontSize=12;plain-green;glass=1;strokeWidth=1;shadow=0;" parent="1" vertex="1">
            <mxGeometry x="280" y="410" width="120" height="40" as="geometry" />
          </mxCell>
        </object>
        <object label="Replace Bulb" Action="Get new bulb and replace existing bulb." id="12">
          <mxCell style="rounded=1;whiteSpace=wrap;html=1;fontSize=12;plain-green;glass=1;strokeWidth=1;shadow=0;" parent="1" vertex="1">
            <mxGeometry x="440" y="310" width="120" height="40" as="geometry" />
          </mxCell>
        </object>
        <mxCell id="2yI0YXnCCQvVOnfs3a0h-12" value="&lt;b&gt;Business User&lt;/b&gt;&lt;br&gt;&lt;div&gt;[Person]&lt;/div&gt;&lt;br&gt;&lt;div&gt;A regular business user&lt;/div&gt;" style="html=1;dashed=0;whitespace=wrap;fillColor=#DAE8FC;strokeColor=#6C8EBF;shape=mxgraph.c4.person;align=center;points=[[0.5,0,0],[1,0.5,0],[1,0.75,0],[0.75,1,0],[0.5,1,0],[0.25,1,0],[0,0.75,0],[0,0.5,0]];" vertex="1" parent="1">
          <mxGeometry x="630" y="491" width="150" height="140" as="geometry" />
        </mxCell>
        <mxCell id="2yI0YXnCCQvVOnfs3a0h-13" value="&lt;b&gt;Financial Risk System&lt;/b&gt;&lt;br&gt;&lt;div&gt;[Software System]&lt;/div&gt;&lt;br&gt;&lt;div&gt;Calculates the bank&#39;s exposure to risk for product x&lt;/div&gt;" style="rounded=1;whiteSpace=wrap;html=1;labelBackgroundColor=none;fillColor=#dae8fc;fontColor=#000000;align=center;arcSize=10;strokeColor=#6c8ebf;points=[[0.25,0,0],[0.5,0,0],[0.75,0,0],[1,0.25,0],[1,0.5,0],[1,0.75,0],[0.75,1,0],[0.5,1,0],[0.25,1,0],[0,0.75,0],[0,0.5,0],[0,0.25,0]];" vertex="1" parent="1">
          <mxGeometry x="625" y="791" width="160" height="110.00000000000001" as="geometry" />
        </mxCell>
        <mxCell id="2yI0YXnCCQvVOnfs3a0h-14" value="&lt;div style=&quot;text-align: left&quot;&gt;&lt;div style=&quot;text-align: center&quot;&gt;&lt;b&gt;Views report using&lt;/b&gt;&lt;/div&gt;&lt;/div&gt;" style="edgeStyle=none;rounded=0;html=1;entryX=0.5;entryY=0;jettySize=auto;orthogonalLoop=1;strokeColor=#A8A8A8;strokeWidth=2;fontColor=#000000;jumpStyle=none;dashed=1;exitX=0.5;exitY=1;exitDx=0;exitDy=0;exitPerimeter=0;entryDx=0;entryDy=0;entryPerimeter=0;" edge="1" parent="1" source="2yI0YXnCCQvVOnfs3a0h-12" target="2yI0YXnCCQvVOnfs3a0h-13">
          <mxGeometry width="200" relative="1" as="geometry">
            <mxPoint x="750" y="691" as="sourcePoint" />
            <mxPoint x="950" y="691" as="targetPoint" />
          </mxGeometry>
        </mxCell>
        <mxCell id="2yI0YXnCCQvVOnfs3a0h-15" value="&lt;b&gt;Active Directory&lt;/b&gt;&lt;br&gt;&lt;div&gt;[External System]&lt;/div&gt;&lt;br&gt;&lt;div&gt;The bank&#39;s authentication and&amp;nbsp; authorisation system&lt;/div&gt;" style="rounded=1;whiteSpace=wrap;html=1;labelBackgroundColor=none;fillColor=#f5f5f5;fontColor=#333333;align=center;arcSize=10;strokeColor=#666666;points=[[0.25,0,0],[0.5,0,0],[0.75,0,0],[1,0.25,0],[1,0.5,0],[1,0.75,0],[0.75,1,0],[0.5,1,0],[0.25,1,0],[0,0.75,0],[0,0.5,0],[0,0.25,0]];" vertex="1" parent="1">
          <mxGeometry x="960" y="781" width="160" height="110.00000000000001" as="geometry" />
        </mxCell>
        <mxCell id="2yI0YXnCCQvVOnfs3a0h-16" value="&lt;div style=&quot;text-align: left&quot;&gt;&lt;div style=&quot;text-align: center&quot;&gt;&lt;b&gt;uses for user authentication&amp;nbsp;&lt;/b&gt;&lt;/div&gt;&lt;div style=&quot;text-align: center&quot;&gt;&lt;b&gt;and authorisation&lt;/b&gt;&lt;/div&gt;&lt;/div&gt;" style="edgeStyle=none;rounded=0;html=1;entryX=0;entryY=0.5;jettySize=auto;orthogonalLoop=1;strokeColor=#A8A8A8;strokeWidth=2;fontColor=#000000;jumpStyle=none;dashed=1;exitX=1;exitY=0.5;exitDx=0;exitDy=0;exitPerimeter=0;entryDx=0;entryDy=0;entryPerimeter=0;" edge="1" parent="1" source="2yI0YXnCCQvVOnfs3a0h-13" target="2yI0YXnCCQvVOnfs3a0h-15">
          <mxGeometry width="200" relative="1" as="geometry">
            <mxPoint x="940" y="631" as="sourcePoint" />
            <mxPoint x="940" y="791" as="targetPoint" />
          </mxGeometry>
        </mxCell>
        <mxCell id="2yI0YXnCCQvVOnfs3a0h-17" value="&lt;b&gt;Email System&lt;/b&gt;&lt;br&gt;&lt;div&gt;[External System]&lt;/div&gt;&lt;br&gt;&lt;div&gt;The bank&#39;s Microsoft Exchange system&lt;/div&gt;" style="rounded=1;whiteSpace=wrap;html=1;labelBackgroundColor=none;fillColor=#f5f5f5;fontColor=#333333;align=center;arcSize=10;strokeColor=#666666;points=[[0.25,0,0],[0.5,0,0],[0.75,0,0],[1,0.25,0],[1,0.5,0],[1,0.75,0],[0.75,1,0],[0.5,1,0],[0.25,1,0],[0,0.75,0],[0,0.5,0],[0,0.25,0]];" vertex="1" parent="1">
          <mxGeometry x="320" y="791" width="160" height="110.00000000000001" as="geometry" />
        </mxCell>
        <mxCell id="2yI0YXnCCQvVOnfs3a0h-18" value="&lt;div style=&quot;text-align: left&quot;&gt;&lt;div style=&quot;text-align: center&quot;&gt;&lt;b&gt;send a notification that &lt;br&gt;a report is ready to&amp;nbsp;&lt;/b&gt;&lt;/div&gt;&lt;/div&gt;" style="edgeStyle=none;rounded=0;html=1;jettySize=auto;orthogonalLoop=1;strokeColor=#A8A8A8;strokeWidth=2;fontColor=#000000;jumpStyle=none;dashed=1;exitX=0;exitY=0.5;exitDx=0;exitDy=0;exitPerimeter=0;" edge="1" parent="1" source="2yI0YXnCCQvVOnfs3a0h-13" target="2yI0YXnCCQvVOnfs3a0h-17">
          <mxGeometry width="200" relative="1" as="geometry">
            <mxPoint x="480" y="591" as="sourcePoint" />
            <mxPoint x="485" y="761" as="targetPoint" />
          </mxGeometry>
        </mxCell>
        <mxCell id="2yI0YXnCCQvVOnfs3a0h-19" value="" style="endArrow=none;dashed=1;html=1;" edge="1" parent="1">
          <mxGeometry width="50" height="50" relative="1" as="geometry">
            <mxPoint x="333" y="961" as="sourcePoint" />
            <mxPoint x="1133" y="961" as="targetPoint" />
          </mxGeometry>
        </mxCell>
        <mxCell id="2yI0YXnCCQvVOnfs3a0h-20" value="&lt;b&gt;Personal Business Custom&lt;/b&gt;&lt;br&gt;&lt;div&gt;[Person]&lt;/div&gt;&lt;br&gt;&lt;div&gt;A regular business user&lt;/div&gt;" style="html=1;dashed=0;whitespace=wrap;fillColor=#DAE8FC;strokeColor=#6C8EBF;shape=mxgraph.c4.person;align=center;points=[[0.5,0,0],[1,0.5,0],[1,0.75,0],[0.75,1,0],[0.5,1,0],[0.25,1,0],[0,0.75,0],[0,0.5,0]];" vertex="1" parent="1">
          <mxGeometry x="645" y="971" width="150" height="140" as="geometry" />
        </mxCell>
        <mxCell id="2yI0YXnCCQvVOnfs3a0h-21" value="&lt;div style=&quot;text-align: left&quot;&gt;&lt;b style=&quot;text-align: center&quot;&gt;Financial Risk System&lt;/b&gt;&lt;br&gt;&lt;/div&gt;" style="rounded=1;whiteSpace=wrap;html=1;labelBackgroundColor=none;fillColor=#ffffff;fontColor=#000000;align=left;arcSize=5;strokeColor=#000000;verticalAlign=bottom;points=[[0.25,0,0],[0.5,0,0],[0.75,0,0],[1,0.25,0],[1,0.5,0],[1,0.75,0],[0.75,1,0],[0.5,1,0],[0.25,1,0],[0,0.75,0],[0,0.5,0],[0,0.25,0]];dashed=1;" vertex="1" parent="1">
          <mxGeometry x="346" y="1221" width="650" height="430" as="geometry" />
        </mxCell>
        <mxCell id="2yI0YXnCCQvVOnfs3a0h-22" value="&lt;div style=&quot;text-align: left&quot;&gt;&lt;div style=&quot;text-align: center&quot;&gt;&lt;b&gt;Views account&amp;nbsp; balances,&amp;nbsp;&lt;/b&gt;&lt;/div&gt;&lt;div style=&quot;text-align: center&quot;&gt;&lt;b&gt;and make payment using&lt;/b&gt;&lt;/div&gt;&lt;/div&gt;" style="edgeStyle=none;rounded=0;html=1;jettySize=auto;orthogonalLoop=1;strokeColor=#A8A8A8;strokeWidth=2;fontColor=#000000;jumpStyle=none;dashed=1;exitX=0.25;exitY=1;exitDx=0;exitDy=0;exitPerimeter=0;" edge="1" parent="1" source="2yI0YXnCCQvVOnfs3a0h-20" target="2yI0YXnCCQvVOnfs3a0h-24">
          <mxGeometry width="200" relative="1" as="geometry">
            <mxPoint x="709.5" y="1101" as="sourcePoint" />
            <mxPoint x="705" y="1219" as="targetPoint" />
          </mxGeometry>
        </mxCell>
        <mxCell id="2yI0YXnCCQvVOnfs3a0h-23" value="&lt;b&gt;Web Application&lt;/b&gt;&lt;br&gt;&lt;div&gt;[Container:&amp;nbsp;&lt;span&gt;JAVA and Spring MVC&lt;/span&gt;&lt;span&gt;]&lt;/span&gt;&lt;/div&gt;&lt;br&gt;&lt;div&gt;Description&lt;/div&gt;" style="rounded=1;whiteSpace=wrap;html=1;labelBackgroundColor=none;fillColor=#dae8fc;fontColor=#000000;align=center;arcSize=10;strokeColor=#6c8ebf;points=[[0.25,0,0],[0.5,0,0],[0.75,0,0],[1,0.25,0],[1,0.5,0],[1,0.75,0],[0.75,1,0],[0.5,1,0],[0.25,1,0],[0,0.75,0],[0,0.5,0],[0,0.25,0]];dashed=1;" vertex="1" parent="1">
          <mxGeometry x="376" y="1241" width="160" height="110.00000000000001" as="geometry" />
        </mxCell>
        <mxCell id="2yI0YXnCCQvVOnfs3a0h-24" value="&lt;b&gt;Single-Page Application&lt;/b&gt;&lt;br&gt;&lt;div&gt;[Container: Rest&lt;span&gt;]&lt;/span&gt;&lt;/div&gt;&lt;br&gt;&lt;div&gt;Description&lt;/div&gt;" style="rounded=1;whiteSpace=wrap;html=1;labelBackgroundColor=none;fillColor=#dae8fc;fontColor=#000000;align=center;arcSize=10;strokeColor=#6c8ebf;points=[[0.25,0,0],[0.5,0,0],[0.75,0,0],[1,0.25,0],[1,0.5,0],[1,0.75,0],[0.75,1,0],[0.5,1,0],[0.25,1,0],[0,0.75,0],[0,0.5,0],[0,0.25,0]];dashed=1;" vertex="1" parent="1">
          <mxGeometry x="601" y="1241" width="160" height="110.00000000000001" as="geometry" />
        </mxCell>
        <mxCell id="2yI0YXnCCQvVOnfs3a0h-25" value="&lt;b&gt;mobile&lt;/b&gt;&lt;br&gt;&lt;div&gt;[Container:&amp;nbsp;&lt;span&gt;technology&lt;/span&gt;&lt;span&gt;]&lt;/span&gt;&lt;/div&gt;&lt;br&gt;&lt;div&gt;Description&lt;/div&gt;" style="rounded=1;whiteSpace=wrap;html=1;labelBackgroundColor=none;fillColor=#dae8fc;fontColor=#000000;align=center;arcSize=10;strokeColor=#6c8ebf;points=[[0.25,0,0],[0.5,0,0],[0.75,0,0],[1,0.25,0],[1,0.5,0],[1,0.75,0],[0.75,1,0],[0.5,1,0],[0.25,1,0],[0,0.75,0],[0,0.5,0],[0,0.25,0]];dashed=1;" vertex="1" parent="1">
          <mxGeometry x="826" y="1241" width="160" height="110.00000000000001" as="geometry" />
        </mxCell>
        <mxCell id="2yI0YXnCCQvVOnfs3a0h-26" value="&lt;b&gt;Api Application&lt;/b&gt;&lt;br&gt;&lt;div&gt;[Container:&amp;nbsp;&lt;span&gt;JAVA and Spring MVC&lt;/span&gt;&lt;span&gt;]&lt;/span&gt;&lt;/div&gt;&lt;br&gt;&lt;div&gt;Description&lt;/div&gt;" style="rounded=1;whiteSpace=wrap;html=1;labelBackgroundColor=none;fillColor=#dae8fc;fontColor=#000000;align=center;arcSize=10;strokeColor=#6c8ebf;points=[[0.25,0,0],[0.5,0,0],[0.75,0,0],[1,0.25,0],[1,0.5,0],[1,0.75,0],[0.75,1,0],[0.5,1,0],[0.25,1,0],[0,0.75,0],[0,0.5,0],[0,0.25,0]];dashed=1;" vertex="1" parent="1">
          <mxGeometry x="756" y="1471" width="160" height="110.00000000000001" as="geometry" />
        </mxCell>
        <mxCell id="2yI0YXnCCQvVOnfs3a0h-27" value="&lt;span&gt;Database&lt;/span&gt;&lt;div&gt;[Container: Oracle]&lt;/div&gt;&lt;br&gt;&lt;div&gt;Description&lt;/div&gt;" style="shape=cylinder;whiteSpace=wrap;html=1;boundedLbl=1;rounded=0;labelBackgroundColor=none;fillColor=#dae8fc;fontSize=12;fontColor=#000000;align=center;strokeColor=#6c8ebf;points=[[0.5,0,0],[1,0.25,0],[1,0.5,0],[1,0.75,0],[0.5,1,0],[0,0.75,0],[0,0.5,0],[0,0.25,0]];dashed=1;" vertex="1" parent="1">
          <mxGeometry x="386" y="1456" width="160" height="140" as="geometry" />
        </mxCell>
        <mxCell id="2yI0YXnCCQvVOnfs3a0h-28" value="&lt;b&gt;Email System&lt;/b&gt;&lt;br&gt;&lt;div&gt;[External System]&lt;/div&gt;&lt;br&gt;&lt;div&gt;The bank&#39;s Microsoft Exchange system&lt;/div&gt;" style="rounded=1;whiteSpace=wrap;html=1;labelBackgroundColor=none;fillColor=#f5f5f5;fontColor=#333333;align=center;arcSize=10;strokeColor=#666666;points=[[0.25,0,0],[0.5,0,0],[0.75,0,0],[1,0.25,0],[1,0.5,0],[1,0.75,0],[0.75,1,0],[0.5,1,0],[0.25,1,0],[0,0.75,0],[0,0.5,0],[0,0.25,0]];" vertex="1" parent="1">
          <mxGeometry x="1146" y="1221" width="160" height="110.00000000000001" as="geometry" />
        </mxCell>
        <mxCell id="2yI0YXnCCQvVOnfs3a0h-29" value="&lt;div style=&quot;text-align: left&quot;&gt;&lt;div style=&quot;text-align: center&quot;&gt;&lt;b&gt;Visit bigbank.com/ib&lt;/b&gt;&lt;/div&gt;&lt;div style=&quot;text-align: center&quot;&gt;[HTTPS]&lt;/div&gt;&lt;/div&gt;" style="edgeStyle=none;rounded=0;html=1;entryX=0.5;entryY=0;jettySize=auto;orthogonalLoop=1;strokeColor=#A8A8A8;strokeWidth=2;fontColor=#000000;jumpStyle=none;dashed=1;exitX=0;exitY=0.75;exitDx=0;exitDy=0;exitPerimeter=0;entryDx=0;entryDy=0;entryPerimeter=0;" edge="1" parent="1" source="2yI0YXnCCQvVOnfs3a0h-20" target="2yI0YXnCCQvVOnfs3a0h-23">
          <mxGeometry width="200" relative="1" as="geometry">
            <mxPoint x="426" y="1151" as="sourcePoint" />
            <mxPoint x="626" y="1151" as="targetPoint" />
          </mxGeometry>
        </mxCell>
        <mxCell id="2yI0YXnCCQvVOnfs3a0h-30" value="&lt;div style=&quot;text-align: left&quot;&gt;&lt;div style=&quot;text-align: center&quot;&gt;&lt;b&gt;Views account&amp;nbsp; balances,&amp;nbsp;&lt;/b&gt;&lt;/div&gt;&lt;div style=&quot;text-align: center&quot;&gt;&lt;b&gt;and make payment using&lt;/b&gt;&lt;/div&gt;&lt;/div&gt;" style="edgeStyle=none;rounded=0;html=1;jettySize=auto;orthogonalLoop=1;strokeColor=#A8A8A8;strokeWidth=2;fontColor=#000000;jumpStyle=none;dashed=1;exitX=0.75;exitY=1;exitDx=0;exitDy=0;exitPerimeter=0;" edge="1" parent="1" source="2yI0YXnCCQvVOnfs3a0h-20" target="2yI0YXnCCQvVOnfs3a0h-25">
          <mxGeometry x="-0.4302" y="11" width="200" relative="1" as="geometry">
            <mxPoint x="856" y="1091" as="sourcePoint" />
            <mxPoint x="856" y="1209" as="targetPoint" />
            <mxPoint x="1" as="offset" />
          </mxGeometry>
        </mxCell>
        <mxCell id="2yI0YXnCCQvVOnfs3a0h-31" value="&lt;div style=&quot;text-align: left&quot;&gt;&lt;div style=&quot;text-align: center&quot;&gt;&lt;b&gt;Send Email&lt;/b&gt;&lt;/div&gt;&lt;/div&gt;" style="edgeStyle=none;rounded=0;html=1;jettySize=auto;orthogonalLoop=1;strokeColor=#A8A8A8;strokeWidth=2;fontColor=#000000;jumpStyle=none;dashed=1;exitX=0.5;exitY=0;exitDx=0;exitDy=0;exitPerimeter=0;" edge="1" parent="1" source="2yI0YXnCCQvVOnfs3a0h-28" target="2yI0YXnCCQvVOnfs3a0h-20">
          <mxGeometry width="200" relative="1" as="geometry">
            <mxPoint x="886" y="1121" as="sourcePoint" />
            <mxPoint x="1086" y="1121" as="targetPoint" />
          </mxGeometry>
        </mxCell>
        <mxCell id="2yI0YXnCCQvVOnfs3a0h-32" value="&lt;div style=&quot;text-align: left&quot;&gt;&lt;div style=&quot;text-align: center&quot;&gt;&lt;b&gt;Make api call&lt;/b&gt;&lt;/div&gt;&lt;div style=&quot;text-align: center&quot;&gt;[HTTPS]&lt;b&gt;&lt;br&gt;&lt;/b&gt;&lt;/div&gt;&lt;/div&gt;" style="edgeStyle=none;rounded=0;html=1;jettySize=auto;orthogonalLoop=1;strokeColor=#A8A8A8;strokeWidth=2;fontColor=#000000;jumpStyle=none;dashed=1;exitX=0.25;exitY=1;exitDx=0;exitDy=0;exitPerimeter=0;entryX=0.25;entryY=0;entryDx=0;entryDy=0;entryPerimeter=0;" edge="1" parent="1" target="2yI0YXnCCQvVOnfs3a0h-26">
          <mxGeometry width="200" relative="1" as="geometry">
            <mxPoint x="681.53" y="1351" as="sourcePoint" />
            <mxPoint x="680.475945945946" y="1481" as="targetPoint" />
          </mxGeometry>
        </mxCell>
        <mxCell id="2yI0YXnCCQvVOnfs3a0h-33" value="&lt;div style=&quot;text-align: left&quot;&gt;&lt;div style=&quot;text-align: center&quot;&gt;&lt;b&gt;Make api call&lt;/b&gt;&lt;/div&gt;&lt;div style=&quot;text-align: center&quot;&gt;[HTTPS]&lt;b&gt;&lt;br&gt;&lt;/b&gt;&lt;/div&gt;&lt;/div&gt;" style="edgeStyle=none;rounded=0;html=1;jettySize=auto;orthogonalLoop=1;strokeColor=#A8A8A8;strokeWidth=2;fontColor=#000000;jumpStyle=none;dashed=1;exitX=0.5;exitY=1;exitDx=0;exitDy=0;exitPerimeter=0;entryX=0.75;entryY=0;entryDx=0;entryDy=0;entryPerimeter=0;" edge="1" parent="1" source="2yI0YXnCCQvVOnfs3a0h-25" target="2yI0YXnCCQvVOnfs3a0h-26">
          <mxGeometry width="200" relative="1" as="geometry">
            <mxPoint x="691.53" y="1361" as="sourcePoint" />
            <mxPoint x="806" y="1481" as="targetPoint" />
          </mxGeometry>
        </mxCell>
        <mxCell id="2yI0YXnCCQvVOnfs3a0h-34" value="&lt;div style=&quot;text-align: left&quot;&gt;&lt;div style=&quot;text-align: center&quot;&gt;&lt;b&gt;Read/Writes to&lt;/b&gt;&lt;/div&gt;&lt;div style=&quot;text-align: center&quot;&gt;[JDBC]&lt;/div&gt;&lt;/div&gt;" style="edgeStyle=none;rounded=0;html=1;jettySize=auto;orthogonalLoop=1;strokeColor=#A8A8A8;strokeWidth=2;fontColor=#000000;jumpStyle=none;dashed=1;exitX=0;exitY=0.5;exitDx=0;exitDy=0;exitPerimeter=0;" edge="1" parent="1" source="2yI0YXnCCQvVOnfs3a0h-26" target="2yI0YXnCCQvVOnfs3a0h-27">
          <mxGeometry width="200" relative="1" as="geometry">
            <mxPoint x="716" y="1461" as="sourcePoint" />
            <mxPoint x="536" y="1616" as="targetPoint" />
          </mxGeometry>
        </mxCell>
        <mxCell id="2yI0YXnCCQvVOnfs3a0h-35" value="&lt;div style=&quot;text-align: left&quot;&gt;&lt;div style=&quot;text-align: center&quot;&gt;&lt;b&gt;Send Email Using&lt;/b&gt;&lt;/div&gt;&lt;div style=&quot;text-align: center&quot;&gt;[smtp]&lt;/div&gt;&lt;/div&gt;" style="edgeStyle=none;rounded=0;html=1;entryX=0.25;entryY=1;jettySize=auto;orthogonalLoop=1;strokeColor=#A8A8A8;strokeWidth=2;fontColor=#000000;jumpStyle=none;dashed=1;entryDx=0;entryDy=0;entryPerimeter=0;exitX=1;exitY=0.25;exitDx=0;exitDy=0;exitPerimeter=0;" edge="1" parent="1" source="2yI0YXnCCQvVOnfs3a0h-26" target="2yI0YXnCCQvVOnfs3a0h-28">
          <mxGeometry width="200" relative="1" as="geometry">
            <mxPoint x="906" y="1531" as="sourcePoint" />
            <mxPoint x="1106" y="1521" as="targetPoint" />
          </mxGeometry>
        </mxCell>
      </root>
    </mxGraphModel>
  </diagram>
</mxfile>
